<svg width="28" height="28" viewBox="0 0 28 28" fill="none" xmlns="http://www.w3.org/2000/svg">
<g clip-path="url(#clip0_83_72)">
<path d="M26.0026 9.67463C25.8893 8.82346 25.8734 7.35744 26.664 6.86518C26.6781 6.85615 26.6886 6.84311 26.701 6.83192C27.3473 6.62518 27.7947 6.33506 27.4435 5.94465L17.9089 3.07178L2.47015 5.21824C2.47015 5.21824 0.702223 5.47094 0.860156 8.21763C0.945891 9.71256 1.41476 10.4467 1.8248 10.8081L0.557911 11.1899C0.20628 11.5803 0.653506 11.8705 1.29994 12.0769C1.31223 12.0884 1.32259 12.1014 1.33696 12.1104C2.12704 12.6031 2.11184 14.0689 1.99819 14.9203C-0.840171 15.7262 0.178704 15.9889 0.178704 15.9889L0.801328 16.1395C0.363377 16.5353 -0.0715649 17.2857 0.00990847 18.7091C0.167925 21.4553 1.62007 21.6448 1.62007 21.6448L11.7231 24.9286L26.9724 21.235C26.9724 21.235 27.9916 20.9719 25.1525 20.1659C25.0383 19.3159 25.0225 17.8502 25.8144 17.3563C25.8289 17.3475 25.8395 17.3342 25.8513 17.3232C26.4978 17.1164 26.9447 16.8266 26.5934 16.4362L25.9306 16.236C26.3727 15.9695 27.0367 15.2728 27.1407 13.4632C27.2125 12.2184 26.8877 11.4894 26.5119 11.0603L27.822 10.7432C27.8221 10.7437 28.8413 10.4807 26.0026 9.67463ZM13.2474 9.63945L15.8118 9.11242L24.4779 7.33154L25.769 7.06598C25.3565 7.82105 25.3738 8.85438 25.442 9.51853C25.457 9.66878 25.4742 9.80599 25.4909 9.91027L24.0777 10.2617L13.1396 12.9827L13.2474 9.63945ZM2.232 12.312L3.52295 12.5776L11.8455 14.2884L12.5726 14.4373L14.753 14.8855L14.8605 18.2288L3.61855 15.4319L2.51026 15.1565C2.52656 15.052 2.54377 14.915 2.5594 14.7643C2.62725 14.1007 2.64488 13.0671 2.232 12.312ZM1.73046 8.08544C1.71483 7.35485 1.84502 6.82649 2.10816 6.55792C2.27562 6.38645 2.47324 6.35077 2.60878 6.35077C2.6804 6.35077 2.73195 6.36071 2.73546 6.36071L9.38761 8.5294L12.7065 9.61145L12.5976 12.9781L3.28689 10.3678L2.79554 10.2301C2.77749 10.2251 2.75301 10.2215 2.73413 10.2207C2.69577 10.2179 1.77525 10.1332 1.73046 8.08544ZM11.7472 23.47L1.94538 20.722C1.92725 20.7167 1.90301 20.7132 1.88413 20.7123C1.84511 20.7097 0.924165 20.6251 0.879626 18.5778C0.863749 17.8463 0.994608 17.3184 1.25724 17.0496C1.42512 16.8781 1.62283 16.8424 1.75812 16.8424C1.8299 16.8424 1.88129 16.852 1.88505 16.852L11.8554 20.1033L11.7472 23.47ZM24.5911 20.01C24.6066 20.1607 24.6238 20.2977 24.6405 20.4021L12.289 23.4748L12.3969 20.1315L15.0376 19.5886L15.4276 19.6829L16.8893 19.2078L23.627 17.8233L24.9186 17.5576C24.5056 18.3126 24.5228 19.3463 24.5911 20.01ZM25.2715 15.4663C25.249 15.4668 25.2265 15.4698 25.2054 15.4764L24.2738 15.7372L15.4039 18.2244L15.2954 14.8578L18.2055 13.9086L25.2521 11.6105C25.253 11.6101 25.6228 11.528 25.8942 11.804C26.1569 12.0725 26.2873 12.6009 26.2719 13.3315C26.2259 15.3786 25.305 15.4637 25.2715 15.4663Z" fill="#333333"/>
</g>
<defs>
<clipPath id="clip0_83_72">
<rect width="28.0001" height="28" fill="white"/>
</clipPath>
</defs>
</svg>