<svg width="26" height="26" viewBox="0 0 26 26" fill="none" xmlns="http://www.w3.org/2000/svg">
<g clip-path="url(#clip0_84_69)">
<path d="M24.0843 21.9966H23.6369V10.8242C23.2202 10.6445 22.8646 10.3463 22.6161 9.97159C22.2031 10.5948 21.4958 11.0078 20.6928 11.0078C19.8899 11.0078 19.1825 10.5948 18.7696 9.97159C18.3567 10.5948 17.6493 11.0078 16.8464 11.0078C16.0434 11.0078 15.3361 10.5948 14.9231 9.97159C14.5102 10.5948 13.8028 11.0078 12.9999 11.0078C12.1969 11.0078 11.4896 10.5948 11.0767 9.97159C10.6637 10.5948 9.96018 11.0078 9.15724 11.0078C8.35048 11.0078 7.6393 10.591 7.22636 9.96012C6.8096 10.5757 6.10989 10.981 5.31077 10.981C4.50783 10.981 3.80048 10.5681 3.38754 9.94482C3.13901 10.3195 2.78342 10.6216 2.36283 10.7975V21.9966H1.91548C1.45283 21.9966 1.07812 22.3713 1.07812 22.8339V24.4245H24.9217V22.8339C24.9217 22.3713 24.5469 21.9966 24.0843 21.9966ZM11.2564 21.9966H4.96665V14.2386C4.96665 13.7186 5.38724 13.2942 5.91107 13.2942H10.3119C10.8319 13.2942 11.2564 13.7186 11.2564 14.2386V21.9966ZM20.5972 18.3489C20.5972 18.6854 20.3258 18.9569 19.9893 18.9569H14.8619C14.5255 18.9569 14.2502 18.6854 14.2502 18.3489V13.711C14.2502 13.3745 14.5255 13.1031 14.8619 13.1031H19.9893C20.3258 13.1031 20.5972 13.3745 20.5972 13.711V18.3489Z" fill="#333333"/>
<path d="M22.8879 7.64326H25.8588L24.685 5.15797C24.5588 4.89032 24.2912 4.71826 23.9929 4.71826H21.9053L22.8879 7.64326Z" fill="#333333"/>
<path d="M4.09904 4.69141H2.01139C1.71698 4.69141 1.44551 4.86346 1.31933 5.13111L0.145508 7.61641H3.11257L4.09904 4.69141Z" fill="#333333"/>
<path d="M22.999 8.40771V8.70213C22.999 9.55095 23.6873 10.243 24.5399 10.243C25.3887 10.243 26.077 9.55095 26.077 8.70213V8.40771H22.999Z" fill="#333333"/>
<path d="M20.6932 10.243C21.542 10.243 22.2341 9.55095 22.2341 8.70213V8.40771H19.1523V8.70213C19.1523 9.55095 19.8444 10.243 20.6932 10.243Z" fill="#333333"/>
<path d="M17.8599 5.45238L17.7107 4.71826H15.084L15.2828 7.64326H18.3034L17.8599 5.45238Z" fill="#333333"/>
<path d="M3.77051 8.67536C3.77051 9.52419 4.46257 10.2162 5.31139 10.2162C6.16021 10.2162 6.85227 9.52419 6.85227 8.67536V8.40771H3.77051V8.67536Z" fill="#333333"/>
<path d="M21.0989 4.71826H18.4912L18.9347 6.90914L19.0839 7.64326H22.0815L21.0989 4.71826Z" fill="#333333"/>
<path d="M7.61719 8.70213C7.61719 9.55095 8.30542 10.243 9.15807 10.243C10.0069 10.243 10.6951 9.55095 10.6951 8.70213V8.40771H7.61719V8.70213Z" fill="#333333"/>
<path d="M3.00559 8.67527V8.38086H-0.0761719V8.67527C-0.0761719 9.52409 0.615887 10.2162 1.46471 10.2162C2.31353 10.2162 3.00559 9.52409 3.00559 8.67527Z" fill="#333333"/>
<path d="M7.50949 4.71826H4.90566L3.93066 7.6165H6.92449L7.50949 4.71826Z" fill="#333333"/>
<path d="M11.6852 4.71826L11.4863 7.64326H14.5146L14.3196 4.71826H11.6852Z" fill="#333333"/>
<path d="M16.8465 10.243C17.6954 10.243 18.3874 9.55095 18.3874 8.70213V8.40771H15.3057V8.70213C15.3057 9.55095 15.9977 10.243 16.8465 10.243Z" fill="#333333"/>
<path d="M10.9168 4.71826H8.29382L7.70117 7.64326H10.7218L10.9168 4.71826Z" fill="#333333"/>
<path d="M11.459 8.70213C11.459 9.55095 12.151 10.243 12.9999 10.243C13.8487 10.243 14.5407 9.55095 14.5407 8.70213V8.40771H11.459V8.70213Z" fill="#333333"/>
<path d="M5.15828 3.95343H23.6374V3.17725C23.6374 2.29402 22.9224 1.5752 22.0392 1.5752H3.96534C3.0821 1.5752 2.36328 2.29402 2.36328 3.17725V3.92667H5.16593L5.15828 3.95343Z" fill="#333333"/>
</g>
<defs>
<clipPath id="clip0_84_69">
<rect width="26" height="26" fill="white"/>
</clipPath>
</defs>
</svg>