<svg width="26" height="26" viewBox="0 0 26 26" fill="none" xmlns="http://www.w3.org/2000/svg">
<path d="M13.5887 13.2242C16.898 13.2242 19.5807 10.4161 19.5807 6.95218C19.5807 3.48825 16.898 0.680176 13.5887 0.680176C10.2794 0.680176 7.59668 3.48825 7.59668 6.95218C7.59668 10.4161 10.2794 13.2242 13.5887 13.2242Z" fill="#333333"/>
<path d="M24.9286 22.5204C24.9286 22.4644 24.9006 22.4084 24.9006 22.3524C24.8166 21.9604 24.6206 21.6244 24.3686 21.3444C24.0606 21.0364 23.6966 20.7844 23.2486 20.6724C23.0806 20.6164 22.8846 20.5884 22.6886 20.5884C21.4286 20.5884 20.3926 21.6244 20.3926 22.8844C20.3926 24.1444 21.4286 25.1804 22.6886 25.1804C23.9486 25.1804 24.9846 24.1444 24.9846 22.8844C24.9846 22.7724 24.9566 22.6604 24.9286 22.5204Z" fill="#333333"/>
<path d="M6.25248 20.6163C6.25248 19.3563 5.21648 18.3203 3.95648 18.3203C3.87248 18.3203 3.78848 18.3203 3.70448 18.3203C3.67648 18.3203 3.67648 18.3203 3.64848 18.3203C3.59248 18.3203 3.53648 18.3483 3.48048 18.3483C3.45248 18.3483 3.45248 18.3483 3.42448 18.3763C3.36848 18.3763 3.31248 18.4043 3.25648 18.4323C3.22848 18.4323 3.22848 18.4323 3.22848 18.4603C3.17248 18.4883 3.11648 18.5163 3.06048 18.5163H3.03248C2.97648 18.5443 2.92048 18.5723 2.83648 18.6003C2.78048 18.6283 2.72448 18.6843 2.64048 18.7123C2.52848 18.7963 2.38848 18.9083 2.30448 19.0203C1.91248 19.4403 1.68848 19.9723 1.68848 20.5883C1.68848 21.8483 2.72448 22.8843 3.98448 22.8843C5.24448 22.8843 6.25248 21.8763 6.25248 20.6163Z" fill="#333333"/>
<path d="M25.6004 21.092C24.9004 15.464 17.5924 13.644 16.7244 13.448L13.6724 15.856L10.6204 13.448C9.97639 13.588 5.88839 14.596 3.48039 17.34L1.43639 10.144L0.400391 10.424L2.50039 17.928C2.92039 17.704 3.42439 17.564 3.95639 17.564C5.63639 17.564 7.00839 18.936 7.00839 20.616C7.00839 22.156 5.86039 23.416 4.40439 23.64C5.66439 24.172 7.40039 24.704 9.69639 25.012V17.732C9.69639 17.732 13.4764 17.732 16.0804 19.44L16.1084 25.32H16.8644L16.8364 19.44C19.4404 17.732 23.2204 17.732 23.2204 17.732V19.916C24.2564 20.112 25.0964 20.812 25.4884 21.764C25.6004 21.54 25.6284 21.316 25.6004 21.092Z" fill="#333333"/>
</svg>